<svg xmlns="http://www.w3.org/2000/svg" viewBox="0 0 400 120" fill="none" aria-hidden="true">
  <path d="M10 70 C10 35 35 10 75 10 H145 C175 10 195 30 195 55 C195 85 170 110 135 110 H75 C35 110 10 85 10 70Z" stroke="#B8BEC8" stroke-width="5" fill="rgba(180,190,200,0.12)"/>
  <path d="M205 70 C205 35 230 10 270 10 H340 C370 10 390 30 390 55 C390 85 365 110 330 110 H270 C230 110 205 85 205 70Z" stroke="#B8BEC8" stroke-width="5" fill="rgba(180,190,200,0.12)"/>
  <path d="M195 58 H205" stroke="#8A9199" stroke-width="4" stroke-linecap="round"/>
  <path d="M75 10 C45 10 20 25 8 45" stroke="#B8BEC8" stroke-width="4" stroke-linecap="round"/>
  <path d="M340 10 C370 10 395 25 392 45" stroke="#B8BEC8" stroke-width="4" stroke-linecap="round"/>
  <line x1="100" y1="60" x2="120" y2="60" stroke="rgba(255,255,255,0.15)" stroke-width="8" stroke-linecap="round"/>
  <line x1="295" y1="60" x2="315" y2="60" stroke="rgba(255,255,255,0.15)" stroke-width="8" stroke-linecap="round"/>
</svg>
