<svg xmlns="http://www.w3.org/2000/svg" viewBox="0 0 400 120" fill="none" aria-hidden="true">
  <path d="M8 60 C8 28 28 8 60 8 H140 C172 8 192 28 192 60 C192 92 172 112 140 112 H60 C28 112 8 92 8 60Z" stroke="#C9A96E" stroke-width="6" fill="rgba(255,255,255,0.06)"/>
  <path d="M208 60 C208 28 228 8 260 8 H340 C372 8 392 28 392 60 C392 92 372 112 340 112 H260 C228 112 208 92 208 60Z" stroke="#C9A96E" stroke-width="6" fill="rgba(255,255,255,0.06)"/>
  <path d="M192 58 H208" stroke="#C9A96E" stroke-width="5" stroke-linecap="round"/>
  <path d="M60 8 C40 8 20 18 8 32" stroke="#C9A96E" stroke-width="5" stroke-linecap="round"/>
  <path d="M340 8 C360 8 380 18 392 32" stroke="#C9A96E" stroke-width="5" stroke-linecap="round"/>
</svg>
